<svg width="32" height="32" viewBox="0 0 32 32" fill="none" xmlns="http://www.w3.org/2000/svg">
<rect width="32" height="32" rx="3" fill="#0C66E4"/>
<path fill-rule="evenodd" clip-rule="evenodd" d="M10.5897 21.83C10.7754 22.016 10.996 22.1635 11.2388 22.2641C11.4816 22.3648 11.7418 22.4166 12.0047 22.4166C12.2675 22.4166 12.5277 22.3648 12.7705 22.2641C13.0133 22.1635 13.2339 22.016 13.4197 21.83L10.5897 19C10.4037 19.1857 10.2562 19.4063 10.1555 19.6491C10.0549 19.8919 10.0031 20.1522 10.0031 20.415C10.0031 20.6778 10.0549 20.9381 10.1555 21.1809C10.2562 21.4237 10.4037 21.6443 10.5897 21.83ZM15.3797 9.48C15.8481 9.01057 16.4045 8.6382 17.0172 8.38423C17.6298 8.13026 18.2865 7.99969 18.9497 8C19.9197 8 20.8997 8.28 21.7397 8.84C21.7597 8.81333 21.783 8.79 21.8097 8.77C21.9044 8.66583 22.0199 8.58264 22.1488 8.52576C22.2776 8.46889 22.4169 8.43958 22.5578 8.43973C22.6986 8.43988 22.8378 8.46948 22.9666 8.52663C23.0953 8.58378 23.2106 8.66722 23.3052 8.77158C23.3997 8.87595 23.4714 8.99893 23.5156 9.13265C23.5598 9.26636 23.5756 9.40784 23.5619 9.548C23.5482 9.68817 23.5053 9.82392 23.4361 9.94653C23.3668 10.0692 23.2726 10.1759 23.1597 10.26C23.8029 11.2313 24.0906 12.395 23.974 13.5541C23.8573 14.7133 23.3435 15.7964 22.5197 16.62L21.7997 17.35C21.0197 18.13 19.9897 19.56 19.4897 20.56L17.9797 23.58C17.7297 24.08 17.2097 24.16 16.8097 23.77L8.24965 15.22C7.84965 14.82 7.93965 14.3 8.43965 14.05L11.4597 12.54C12.4497 12.05 13.8797 11.01 14.6697 10.23L15.3797 9.48ZM18.1197 19.11C18.6397 18.14 19.6897 16.71 20.4697 15.93L21.1997 15.2C21.695 14.7037 22.0042 14.0519 22.0753 13.3543C22.1463 12.6567 21.9748 11.9559 21.5897 11.37C21.3997 11.08 20.8697 10.6 20.7297 10.51C20.232 10.1785 19.6476 10.0011 19.0497 10C18.2497 10 17.4797 10.31 16.8897 10.89L15.9397 11.84C15.1597 12.63 13.7197 13.66 12.7397 14.15L10.9997 15.02L17.0697 21.09L18.1197 19.11Z" fill="white"/>
</svg>
