<svg width="32" height="32" viewBox="0 0 32 32" fill="none" xmlns="http://www.w3.org/2000/svg">
<path fill-rule="evenodd" clip-rule="evenodd" d="M7.66699 15.9998C7.66699 11.3971 11.3976 7.6665 16.0003 7.6665C20.6031 7.6665 24.3337 11.3971 24.3337 15.9998C24.3337 20.6026 20.6031 24.3332 16.0003 24.3332C11.3976 24.3332 7.66699 20.6026 7.66699 15.9998ZM9.33366 15.9998C9.33366 19.6822 12.318 22.6665 16.0003 22.6665C19.6827 22.6665 22.667 19.6822 22.667 15.9998C22.667 12.3175 19.6827 9.33317 16.0003 9.33317C12.318 9.33317 9.33366 12.3175 9.33366 15.9998ZM12.667 14.3332C12.667 12.2364 14.6015 10.5924 16.7827 11.0891C17.9861 11.3624 18.9644 12.3374 19.2419 13.5399C19.6511 15.3141 18.6436 16.9091 17.1327 17.4558C16.9627 17.5166 16.8419 17.6683 16.8419 17.8491V17.6666C16.8419 18.1266 16.4694 18.4999 16.0086 18.4999C15.5486 18.4999 15.1752 18.1266 15.1752 17.6666V16.8224C15.1819 16.3674 15.5502 15.9999 16.0002 15.9999C16.9194 15.9999 17.6669 15.2516 17.6669 14.3333C17.6669 13.4141 16.9194 12.6666 16.0002 12.6666C15.0802 12.6666 14.3331 13.4358 14.334 14.3558C14.3213 14.8053 13.9528 15.1665 13.5003 15.1665C13.0651 15.1665 12.7075 14.8323 12.6702 14.4067C12.6702 14.4067 12.667 14.3579 12.667 14.3332ZM16.0003 20.9998C15.5403 20.9998 15.167 20.6265 15.167 20.1665C15.167 19.7065 15.5403 19.3332 16.0003 19.3332C16.4603 19.3332 16.8337 19.7065 16.8337 20.1665C16.8337 20.6265 16.4603 20.9998 16.0003 20.9998Z" fill="#172B4D"/>
</svg>
